<?xml version="1.0" encoding="utf-8" standalone="no"?>
<!DOCTYPE svg PUBLIC "-//W3C//DTD SVG 1.1//EN"
  "http://www.w3.org/Graphics/SVG/1.1/DTD/svg11.dtd">
<svg xmlns:xlink="http://www.w3.org/1999/xlink" width="576pt" height="360pt" viewBox="0 0 576 360" xmlns="http://www.w3.org/2000/svg" version="1.1">
 <metadata>
  <rdf:RDF xmlns:dc="http://purl.org/dc/elements/1.1/" xmlns:cc="http://creativecommons.org/ns#" xmlns:rdf="http://www.w3.org/1999/02/22-rdf-syntax-ns#">
   <cc:Work>
    <dc:type rdf:resource="http://purl.org/dc/dcmitype/StillImage"/>
    <dc:date>2024-05-25T12:43:23.878551</dc:date>
    <dc:format>image/svg+xml</dc:format>
    <dc:creator>
     <cc:Agent>
      <dc:title>Matplotlib v3.8.3, https://matplotlib.org/</dc:title>
     </cc:Agent>
    </dc:creator>
   </cc:Work>
  </rdf:RDF>
 </metadata>
 <defs>
  <style type="text/css">*{stroke-linejoin: round; stroke-linecap: butt}</style>
 </defs>
 <g id="figure_1">
  <g id="patch_1">
   <path d="M 0 360 
L 576 360 
L 576 0 
L 0 0 
z
" style="fill: #ffffff"/>
  </g>
  <g id="axes_1">
   <g id="patch_2">
    <path d="M 51.842 294.712 
L 528.19 294.712 
L 528.19 25.44 
L 51.842 25.44 
z
" style="fill: #ffffff"/>
   </g>
   <g id="PathCollection_1">
    <path d="M 92.500612 50.571694 
L 70.139932 50.571694 
" clip-path="url(#p96ff1013e3)" style="fill: #1f77b4; stroke-dasharray: 6.618761,2.862167; stroke-dashoffset: 0; stroke: #1f77b4; stroke-width: 1.788854"/>
    <path d="M 144.674544 133.131567 
L 122.313864 133.131567 
" clip-path="url(#p96ff1013e3)" style="fill: #1f77b4; stroke-dasharray: 6.618761,2.862167; stroke-dashoffset: 0; stroke: #1f77b4; stroke-width: 1.788854"/>
    <path d="M 196.848476 45.755495 
L 174.487796 45.755495 
" clip-path="url(#p96ff1013e3)" style="fill: #1f77b4; stroke-dasharray: 6.618761,2.862167; stroke-dashoffset: 0; stroke: #1f77b4; stroke-width: 1.788854"/>
   </g>
   <g id="matplotlib.axis_1">
    <g id="xtick_1">
     <g id="line2d_1">
      <defs>
       <path id="m9473a35817" d="M 0 0 
L 0 3.5 
" style="stroke: #000000; stroke-width: 0.8"/>
      </defs>
      <g>
       <use xlink:href="#m9473a35817" x="81.320272" y="294.712" style="stroke: #000000; stroke-width: 0.8"/>
      </g>
     </g>
     <g id="line2d_2">
      <defs>
       <path id="m8e32582d82" d="M 0 0 
L 0 -3.5 
" style="stroke: #000000; stroke-width: 0.8"/>
      </defs>
      <g>
       <use xlink:href="#m8e32582d82" x="81.320272" y="25.44" style="stroke: #000000; stroke-width: 0.8"/>
      </g>
     </g>
     <g id="text_1">
      <!-- CASF2016 -->
      <g transform="translate(55.633553 309.310438) scale(0.1 -0.1)">
       <defs>
        <path id="DejaVuSans-43" d="M 4122 4306 
L 4122 3641 
Q 3803 3938 3442 4084 
Q 3081 4231 2675 4231 
Q 1875 4231 1450 3742 
Q 1025 3253 1025 2328 
Q 1025 1406 1450 917 
Q 1875 428 2675 428 
Q 3081 428 3442 575 
Q 3803 722 4122 1019 
L 4122 359 
Q 3791 134 3420 21 
Q 3050 -91 2638 -91 
Q 1578 -91 968 557 
Q 359 1206 359 2328 
Q 359 3453 968 4101 
Q 1578 4750 2638 4750 
Q 3056 4750 3426 4639 
Q 3797 4528 4122 4306 
z
" transform="scale(0.015625)"/>
        <path id="DejaVuSans-41" d="M 2188 4044 
L 1331 1722 
L 3047 1722 
L 2188 4044 
z
M 1831 4666 
L 2547 4666 
L 4325 0 
L 3669 0 
L 3244 1197 
L 1141 1197 
L 716 0 
L 50 0 
L 1831 4666 
z
" transform="scale(0.015625)"/>
        <path id="DejaVuSans-53" d="M 3425 4513 
L 3425 3897 
Q 3066 4069 2747 4153 
Q 2428 4238 2131 4238 
Q 1616 4238 1336 4038 
Q 1056 3838 1056 3469 
Q 1056 3159 1242 3001 
Q 1428 2844 1947 2747 
L 2328 2669 
Q 3034 2534 3370 2195 
Q 3706 1856 3706 1288 
Q 3706 609 3251 259 
Q 2797 -91 1919 -91 
Q 1588 -91 1214 -16 
Q 841 59 441 206 
L 441 856 
Q 825 641 1194 531 
Q 1563 422 1919 422 
Q 2459 422 2753 634 
Q 3047 847 3047 1241 
Q 3047 1584 2836 1778 
Q 2625 1972 2144 2069 
L 1759 2144 
Q 1053 2284 737 2584 
Q 422 2884 422 3419 
Q 422 4038 858 4394 
Q 1294 4750 2059 4750 
Q 2388 4750 2728 4690 
Q 3069 4631 3425 4513 
z
" transform="scale(0.015625)"/>
        <path id="DejaVuSans-46" d="M 628 4666 
L 3309 4666 
L 3309 4134 
L 1259 4134 
L 1259 2759 
L 3109 2759 
L 3109 2228 
L 1259 2228 
L 1259 0 
L 628 0 
L 628 4666 
z
" transform="scale(0.015625)"/>
        <path id="DejaVuSans-32" d="M 1228 531 
L 3431 531 
L 3431 0 
L 469 0 
L 469 531 
Q 828 903 1448 1529 
Q 2069 2156 2228 2338 
Q 2531 2678 2651 2914 
Q 2772 3150 2772 3378 
Q 2772 3750 2511 3984 
Q 2250 4219 1831 4219 
Q 1534 4219 1204 4116 
Q 875 4013 500 3803 
L 500 4441 
Q 881 4594 1212 4672 
Q 1544 4750 1819 4750 
Q 2544 4750 2975 4387 
Q 3406 4025 3406 3419 
Q 3406 3131 3298 2873 
Q 3191 2616 2906 2266 
Q 2828 2175 2409 1742 
Q 1991 1309 1228 531 
z
" transform="scale(0.015625)"/>
        <path id="DejaVuSans-30" d="M 2034 4250 
Q 1547 4250 1301 3770 
Q 1056 3291 1056 2328 
Q 1056 1369 1301 889 
Q 1547 409 2034 409 
Q 2525 409 2770 889 
Q 3016 1369 3016 2328 
Q 3016 3291 2770 3770 
Q 2525 4250 2034 4250 
z
M 2034 4750 
Q 2819 4750 3233 4129 
Q 3647 3509 3647 2328 
Q 3647 1150 3233 529 
Q 2819 -91 2034 -91 
Q 1250 -91 836 529 
Q 422 1150 422 2328 
Q 422 3509 836 4129 
Q 1250 4750 2034 4750 
z
" transform="scale(0.015625)"/>
        <path id="DejaVuSans-31" d="M 794 531 
L 1825 531 
L 1825 4091 
L 703 3866 
L 703 4441 
L 1819 4666 
L 2450 4666 
L 2450 531 
L 3481 531 
L 3481 0 
L 794 0 
L 794 531 
z
" transform="scale(0.015625)"/>
        <path id="DejaVuSans-36" d="M 2113 2584 
Q 1688 2584 1439 2293 
Q 1191 2003 1191 1497 
Q 1191 994 1439 701 
Q 1688 409 2113 409 
Q 2538 409 2786 701 
Q 3034 994 3034 1497 
Q 3034 2003 2786 2293 
Q 2538 2584 2113 2584 
z
M 3366 4563 
L 3366 3988 
Q 3128 4100 2886 4159 
Q 2644 4219 2406 4219 
Q 1781 4219 1451 3797 
Q 1122 3375 1075 2522 
Q 1259 2794 1537 2939 
Q 1816 3084 2150 3084 
Q 2853 3084 3261 2657 
Q 3669 2231 3669 1497 
Q 3669 778 3244 343 
Q 2819 -91 2113 -91 
Q 1303 -91 875 529 
Q 447 1150 447 2328 
Q 447 3434 972 4092 
Q 1497 4750 2381 4750 
Q 2619 4750 2861 4703 
Q 3103 4656 3366 4563 
z
" transform="scale(0.015625)"/>
       </defs>
       <use xlink:href="#DejaVuSans-43"/>
       <use xlink:href="#DejaVuSans-41" x="69.824219"/>
       <use xlink:href="#DejaVuSans-53" x="138.232422"/>
       <use xlink:href="#DejaVuSans-46" x="201.708984"/>
       <use xlink:href="#DejaVuSans-32" x="259.228516"/>
       <use xlink:href="#DejaVuSans-30" x="322.851562"/>
       <use xlink:href="#DejaVuSans-31" x="386.474609"/>
       <use xlink:href="#DejaVuSans-36" x="450.097656"/>
      </g>
      <!-- (Pearson R) -->
      <g transform="translate(52.492928 320.50825) scale(0.1 -0.1)">
       <defs>
        <path id="DejaVuSans-28" d="M 1984 4856 
Q 1566 4138 1362 3434 
Q 1159 2731 1159 2009 
Q 1159 1288 1364 580 
Q 1569 -128 1984 -844 
L 1484 -844 
Q 1016 -109 783 600 
Q 550 1309 550 2009 
Q 550 2706 781 3412 
Q 1013 4119 1484 4856 
L 1984 4856 
z
" transform="scale(0.015625)"/>
        <path id="DejaVuSans-50" d="M 1259 4147 
L 1259 2394 
L 2053 2394 
Q 2494 2394 2734 2622 
Q 2975 2850 2975 3272 
Q 2975 3691 2734 3919 
Q 2494 4147 2053 4147 
L 1259 4147 
z
M 628 4666 
L 2053 4666 
Q 2838 4666 3239 4311 
Q 3641 3956 3641 3272 
Q 3641 2581 3239 2228 
Q 2838 1875 2053 1875 
L 1259 1875 
L 1259 0 
L 628 0 
L 628 4666 
z
" transform="scale(0.015625)"/>
        <path id="DejaVuSans-65" d="M 3597 1894 
L 3597 1613 
L 953 1613 
Q 991 1019 1311 708 
Q 1631 397 2203 397 
Q 2534 397 2845 478 
Q 3156 559 3463 722 
L 3463 178 
Q 3153 47 2828 -22 
Q 2503 -91 2169 -91 
Q 1331 -91 842 396 
Q 353 884 353 1716 
Q 353 2575 817 3079 
Q 1281 3584 2069 3584 
Q 2775 3584 3186 3129 
Q 3597 2675 3597 1894 
z
M 3022 2063 
Q 3016 2534 2758 2815 
Q 2500 3097 2075 3097 
Q 1594 3097 1305 2825 
Q 1016 2553 972 2059 
L 3022 2063 
z
" transform="scale(0.015625)"/>
        <path id="DejaVuSans-61" d="M 2194 1759 
Q 1497 1759 1228 1600 
Q 959 1441 959 1056 
Q 959 750 1161 570 
Q 1363 391 1709 391 
Q 2188 391 2477 730 
Q 2766 1069 2766 1631 
L 2766 1759 
L 2194 1759 
z
M 3341 1997 
L 3341 0 
L 2766 0 
L 2766 531 
Q 2569 213 2275 61 
Q 1981 -91 1556 -91 
Q 1019 -91 701 211 
Q 384 513 384 1019 
Q 384 1609 779 1909 
Q 1175 2209 1959 2209 
L 2766 2209 
L 2766 2266 
Q 2766 2663 2505 2880 
Q 2244 3097 1772 3097 
Q 1472 3097 1187 3025 
Q 903 2953 641 2809 
L 641 3341 
Q 956 3463 1253 3523 
Q 1550 3584 1831 3584 
Q 2591 3584 2966 3190 
Q 3341 2797 3341 1997 
z
" transform="scale(0.015625)"/>
        <path id="DejaVuSans-72" d="M 2631 2963 
Q 2534 3019 2420 3045 
Q 2306 3072 2169 3072 
Q 1681 3072 1420 2755 
Q 1159 2438 1159 1844 
L 1159 0 
L 581 0 
L 581 3500 
L 1159 3500 
L 1159 2956 
Q 1341 3275 1631 3429 
Q 1922 3584 2338 3584 
Q 2397 3584 2469 3576 
Q 2541 3569 2628 3553 
L 2631 2963 
z
" transform="scale(0.015625)"/>
        <path id="DejaVuSans-73" d="M 2834 3397 
L 2834 2853 
Q 2591 2978 2328 3040 
Q 2066 3103 1784 3103 
Q 1356 3103 1142 2972 
Q 928 2841 928 2578 
Q 928 2378 1081 2264 
Q 1234 2150 1697 2047 
L 1894 2003 
Q 2506 1872 2764 1633 
Q 3022 1394 3022 966 
Q 3022 478 2636 193 
Q 2250 -91 1575 -91 
Q 1294 -91 989 -36 
Q 684 19 347 128 
L 347 722 
Q 666 556 975 473 
Q 1284 391 1588 391 
Q 1994 391 2212 530 
Q 2431 669 2431 922 
Q 2431 1156 2273 1281 
Q 2116 1406 1581 1522 
L 1381 1569 
Q 847 1681 609 1914 
Q 372 2147 372 2553 
Q 372 3047 722 3315 
Q 1072 3584 1716 3584 
Q 2034 3584 2315 3537 
Q 2597 3491 2834 3397 
z
" transform="scale(0.015625)"/>
        <path id="DejaVuSans-6f" d="M 1959 3097 
Q 1497 3097 1228 2736 
Q 959 2375 959 1747 
Q 959 1119 1226 758 
Q 1494 397 1959 397 
Q 2419 397 2687 759 
Q 2956 1122 2956 1747 
Q 2956 2369 2687 2733 
Q 2419 3097 1959 3097 
z
M 1959 3584 
Q 2709 3584 3137 3096 
Q 3566 2609 3566 1747 
Q 3566 888 3137 398 
Q 2709 -91 1959 -91 
Q 1206 -91 779 398 
Q 353 888 353 1747 
Q 353 2609 779 3096 
Q 1206 3584 1959 3584 
z
" transform="scale(0.015625)"/>
        <path id="DejaVuSans-6e" d="M 3513 2113 
L 3513 0 
L 2938 0 
L 2938 2094 
Q 2938 2591 2744 2837 
Q 2550 3084 2163 3084 
Q 1697 3084 1428 2787 
Q 1159 2491 1159 1978 
L 1159 0 
L 581 0 
L 581 3500 
L 1159 3500 
L 1159 2956 
Q 1366 3272 1645 3428 
Q 1925 3584 2291 3584 
Q 2894 3584 3203 3211 
Q 3513 2838 3513 2113 
z
" transform="scale(0.015625)"/>
        <path id="DejaVuSans-20" transform="scale(0.015625)"/>
        <path id="DejaVuSans-52" d="M 2841 2188 
Q 3044 2119 3236 1894 
Q 3428 1669 3622 1275 
L 4263 0 
L 3584 0 
L 2988 1197 
Q 2756 1666 2539 1819 
Q 2322 1972 1947 1972 
L 1259 1972 
L 1259 0 
L 628 0 
L 628 4666 
L 2053 4666 
Q 2853 4666 3247 4331 
Q 3641 3997 3641 3322 
Q 3641 2881 3436 2590 
Q 3231 2300 2841 2188 
z
M 1259 4147 
L 1259 2491 
L 2053 2491 
Q 2509 2491 2742 2702 
Q 2975 2913 2975 3322 
Q 2975 3731 2742 3939 
Q 2509 4147 2053 4147 
L 1259 4147 
z
" transform="scale(0.015625)"/>
        <path id="DejaVuSans-29" d="M 513 4856 
L 1013 4856 
Q 1481 4119 1714 3412 
Q 1947 2706 1947 2009 
Q 1947 1309 1714 600 
Q 1481 -109 1013 -844 
L 513 -844 
Q 928 -128 1133 580 
Q 1338 1288 1338 2009 
Q 1338 2731 1133 3434 
Q 928 4138 513 4856 
z
" transform="scale(0.015625)"/>
       </defs>
       <use xlink:href="#DejaVuSans-28"/>
       <use xlink:href="#DejaVuSans-50" x="39.013672"/>
       <use xlink:href="#DejaVuSans-65" x="95.691406"/>
       <use xlink:href="#DejaVuSans-61" x="157.214844"/>
       <use xlink:href="#DejaVuSans-72" x="218.494141"/>
       <use xlink:href="#DejaVuSans-73" x="259.607422"/>
       <use xlink:href="#DejaVuSans-6f" x="311.707031"/>
       <use xlink:href="#DejaVuSans-6e" x="372.888672"/>
       <use xlink:href="#DejaVuSans-20" x="436.267578"/>
       <use xlink:href="#DejaVuSans-52" x="468.054688"/>
       <use xlink:href="#DejaVuSans-29" x="537.537109"/>
      </g>
     </g>
    </g>
    <g id="xtick_2">
     <g id="line2d_3">
      <g>
       <use xlink:href="#m9473a35817" x="133.494204" y="294.712" style="stroke: #000000; stroke-width: 0.8"/>
      </g>
     </g>
     <g id="line2d_4">
      <g>
       <use xlink:href="#m8e32582d82" x="133.494204" y="25.44" style="stroke: #000000; stroke-width: 0.8"/>
      </g>
     </g>
     <g id="text_2">
      <!-- Rzepiela -->
      <g transform="translate(112.226235 309.310438) scale(0.1 -0.1)">
       <defs>
        <path id="DejaVuSans-7a" d="M 353 3500 
L 3084 3500 
L 3084 2975 
L 922 459 
L 3084 459 
L 3084 0 
L 275 0 
L 275 525 
L 2438 3041 
L 353 3041 
L 353 3500 
z
" transform="scale(0.015625)"/>
        <path id="DejaVuSans-70" d="M 1159 525 
L 1159 -1331 
L 581 -1331 
L 581 3500 
L 1159 3500 
L 1159 2969 
Q 1341 3281 1617 3432 
Q 1894 3584 2278 3584 
Q 2916 3584 3314 3078 
Q 3713 2572 3713 1747 
Q 3713 922 3314 415 
Q 2916 -91 2278 -91 
Q 1894 -91 1617 61 
Q 1341 213 1159 525 
z
M 3116 1747 
Q 3116 2381 2855 2742 
Q 2594 3103 2138 3103 
Q 1681 3103 1420 2742 
Q 1159 2381 1159 1747 
Q 1159 1113 1420 752 
Q 1681 391 2138 391 
Q 2594 391 2855 752 
Q 3116 1113 3116 1747 
z
" transform="scale(0.015625)"/>
        <path id="DejaVuSans-69" d="M 603 3500 
L 1178 3500 
L 1178 0 
L 603 0 
L 603 3500 
z
M 603 4863 
L 1178 4863 
L 1178 4134 
L 603 4134 
L 603 4863 
z
" transform="scale(0.015625)"/>
        <path id="DejaVuSans-6c" d="M 603 4863 
L 1178 4863 
L 1178 0 
L 603 0 
L 603 4863 
z
" transform="scale(0.015625)"/>
       </defs>
       <use xlink:href="#DejaVuSans-52"/>
       <use xlink:href="#DejaVuSans-7a" x="69.482422"/>
       <use xlink:href="#DejaVuSans-65" x="121.972656"/>
       <use xlink:href="#DejaVuSans-70" x="183.496094"/>
       <use xlink:href="#DejaVuSans-69" x="246.972656"/>
       <use xlink:href="#DejaVuSans-65" x="274.755859"/>
       <use xlink:href="#DejaVuSans-6c" x="336.279297"/>
       <use xlink:href="#DejaVuSans-61" x="364.0625"/>
      </g>
      <!-- ($r^2$) -->
      <g transform="translate(124.894204 321.4945) scale(0.1 -0.1)">
       <defs>
        <path id="DejaVuSans-Oblique-72" d="M 2853 2969 
Q 2766 3016 2653 3041 
Q 2541 3066 2413 3066 
Q 1953 3066 1609 2717 
Q 1266 2369 1153 1784 
L 800 0 
L 225 0 
L 909 3500 
L 1484 3500 
L 1375 2956 
Q 1603 3259 1920 3421 
Q 2238 3584 2597 3584 
Q 2691 3584 2781 3573 
Q 2872 3563 2963 3538 
L 2853 2969 
z
" transform="scale(0.015625)"/>
       </defs>
       <use xlink:href="#DejaVuSans-28" transform="translate(0 0.765625)"/>
       <use xlink:href="#DejaVuSans-Oblique-72" transform="translate(39.013672 0.765625)"/>
       <use xlink:href="#DejaVuSans-32" transform="translate(84.776849 39.046875) scale(0.7)"/>
       <use xlink:href="#DejaVuSans-29" transform="translate(132.047357 0.765625)"/>
      </g>
     </g>
    </g>
    <g id="xtick_3">
     <g id="line2d_5">
      <g>
       <use xlink:href="#m9473a35817" x="185.668136" y="294.712" style="stroke: #000000; stroke-width: 0.8"/>
      </g>
     </g>
     <g id="line2d_6">
      <g>
       <use xlink:href="#m8e32582d82" x="185.668136" y="25.44" style="stroke: #000000; stroke-width: 0.8"/>
      </g>
     </g>
     <g id="text_3">
      <!-- Buchwald -->
      <g transform="translate(161.434542 309.310438) scale(0.1 -0.1)">
       <defs>
        <path id="DejaVuSans-42" d="M 1259 2228 
L 1259 519 
L 2272 519 
Q 2781 519 3026 730 
Q 3272 941 3272 1375 
Q 3272 1813 3026 2020 
Q 2781 2228 2272 2228 
L 1259 2228 
z
M 1259 4147 
L 1259 2741 
L 2194 2741 
Q 2656 2741 2882 2914 
Q 3109 3088 3109 3444 
Q 3109 3797 2882 3972 
Q 2656 4147 2194 4147 
L 1259 4147 
z
M 628 4666 
L 2241 4666 
Q 2963 4666 3353 4366 
Q 3744 4066 3744 3513 
Q 3744 3084 3544 2831 
Q 3344 2578 2956 2516 
Q 3422 2416 3680 2098 
Q 3938 1781 3938 1306 
Q 3938 681 3513 340 
Q 3088 0 2303 0 
L 628 0 
L 628 4666 
z
" transform="scale(0.015625)"/>
        <path id="DejaVuSans-75" d="M 544 1381 
L 544 3500 
L 1119 3500 
L 1119 1403 
Q 1119 906 1312 657 
Q 1506 409 1894 409 
Q 2359 409 2629 706 
Q 2900 1003 2900 1516 
L 2900 3500 
L 3475 3500 
L 3475 0 
L 2900 0 
L 2900 538 
Q 2691 219 2414 64 
Q 2138 -91 1772 -91 
Q 1169 -91 856 284 
Q 544 659 544 1381 
z
M 1991 3584 
L 1991 3584 
z
" transform="scale(0.015625)"/>
        <path id="DejaVuSans-63" d="M 3122 3366 
L 3122 2828 
Q 2878 2963 2633 3030 
Q 2388 3097 2138 3097 
Q 1578 3097 1268 2742 
Q 959 2388 959 1747 
Q 959 1106 1268 751 
Q 1578 397 2138 397 
Q 2388 397 2633 464 
Q 2878 531 3122 666 
L 3122 134 
Q 2881 22 2623 -34 
Q 2366 -91 2075 -91 
Q 1284 -91 818 406 
Q 353 903 353 1747 
Q 353 2603 823 3093 
Q 1294 3584 2113 3584 
Q 2378 3584 2631 3529 
Q 2884 3475 3122 3366 
z
" transform="scale(0.015625)"/>
        <path id="DejaVuSans-68" d="M 3513 2113 
L 3513 0 
L 2938 0 
L 2938 2094 
Q 2938 2591 2744 2837 
Q 2550 3084 2163 3084 
Q 1697 3084 1428 2787 
Q 1159 2491 1159 1978 
L 1159 0 
L 581 0 
L 581 4863 
L 1159 4863 
L 1159 2956 
Q 1366 3272 1645 3428 
Q 1925 3584 2291 3584 
Q 2894 3584 3203 3211 
Q 3513 2838 3513 2113 
z
" transform="scale(0.015625)"/>
        <path id="DejaVuSans-77" d="M 269 3500 
L 844 3500 
L 1563 769 
L 2278 3500 
L 2956 3500 
L 3675 769 
L 4391 3500 
L 4966 3500 
L 4050 0 
L 3372 0 
L 2619 2869 
L 1863 0 
L 1184 0 
L 269 3500 
z
" transform="scale(0.015625)"/>
        <path id="DejaVuSans-64" d="M 2906 2969 
L 2906 4863 
L 3481 4863 
L 3481 0 
L 2906 0 
L 2906 525 
Q 2725 213 2448 61 
Q 2172 -91 1784 -91 
Q 1150 -91 751 415 
Q 353 922 353 1747 
Q 353 2572 751 3078 
Q 1150 3584 1784 3584 
Q 2172 3584 2448 3432 
Q 2725 3281 2906 2969 
z
M 947 1747 
Q 947 1113 1208 752 
Q 1469 391 1925 391 
Q 2381 391 2643 752 
Q 2906 1113 2906 1747 
Q 2906 2381 2643 2742 
Q 2381 3103 1925 3103 
Q 1469 3103 1208 2742 
Q 947 2381 947 1747 
z
" transform="scale(0.015625)"/>
       </defs>
       <use xlink:href="#DejaVuSans-42"/>
       <use xlink:href="#DejaVuSans-75" x="68.603516"/>
       <use xlink:href="#DejaVuSans-63" x="131.982422"/>
       <use xlink:href="#DejaVuSans-68" x="186.962891"/>
       <use xlink:href="#DejaVuSans-77" x="250.341797"/>
       <use xlink:href="#DejaVuSans-61" x="332.128906"/>
       <use xlink:href="#DejaVuSans-6c" x="393.408203"/>
       <use xlink:href="#DejaVuSans-64" x="421.191406"/>
      </g>
      <!-- ($r^2$) -->
      <g transform="translate(177.068136 321.4945) scale(0.1 -0.1)">
       <use xlink:href="#DejaVuSans-28" transform="translate(0 0.765625)"/>
       <use xlink:href="#DejaVuSans-Oblique-72" transform="translate(39.013672 0.765625)"/>
       <use xlink:href="#DejaVuSans-32" transform="translate(84.776849 39.046875) scale(0.7)"/>
       <use xlink:href="#DejaVuSans-29" transform="translate(132.047357 0.765625)"/>
      </g>
     </g>
    </g>
    <g id="xtick_4">
     <g id="line2d_7">
      <g>
       <use xlink:href="#m9473a35817" x="237.842068" y="294.712" style="stroke: #000000; stroke-width: 0.8"/>
      </g>
     </g>
     <g id="line2d_8">
      <g>
       <use xlink:href="#m8e32582d82" x="237.842068" y="25.44" style="stroke: #000000; stroke-width: 0.8"/>
      </g>
     </g>
     <g id="text_4">
      <!-- BACE-c -->
      <g transform="translate(219.87488 309.310438) scale(0.1 -0.1)">
       <defs>
        <path id="DejaVuSans-45" d="M 628 4666 
L 3578 4666 
L 3578 4134 
L 1259 4134 
L 1259 2753 
L 3481 2753 
L 3481 2222 
L 1259 2222 
L 1259 531 
L 3634 531 
L 3634 0 
L 628 0 
L 628 4666 
z
" transform="scale(0.015625)"/>
        <path id="DejaVuSans-2d" d="M 313 2009 
L 1997 2009 
L 1997 1497 
L 313 1497 
L 313 2009 
z
" transform="scale(0.015625)"/>
       </defs>
       <use xlink:href="#DejaVuSans-42"/>
       <use xlink:href="#DejaVuSans-41" x="68.603516"/>
       <use xlink:href="#DejaVuSans-43" x="135.261719"/>
       <use xlink:href="#DejaVuSans-45" x="205.085938"/>
       <use xlink:href="#DejaVuSans-2d" x="268.269531"/>
       <use xlink:href="#DejaVuSans-63" x="304.353516"/>
      </g>
      <!-- (ROC-AUC) -->
      <g transform="translate(210.776443 320.50825) scale(0.1 -0.1)">
       <defs>
        <path id="DejaVuSans-4f" d="M 2522 4238 
Q 1834 4238 1429 3725 
Q 1025 3213 1025 2328 
Q 1025 1447 1429 934 
Q 1834 422 2522 422 
Q 3209 422 3611 934 
Q 4013 1447 4013 2328 
Q 4013 3213 3611 3725 
Q 3209 4238 2522 4238 
z
M 2522 4750 
Q 3503 4750 4090 4092 
Q 4678 3434 4678 2328 
Q 4678 1225 4090 567 
Q 3503 -91 2522 -91 
Q 1538 -91 948 565 
Q 359 1222 359 2328 
Q 359 3434 948 4092 
Q 1538 4750 2522 4750 
z
" transform="scale(0.015625)"/>
        <path id="DejaVuSans-55" d="M 556 4666 
L 1191 4666 
L 1191 1831 
Q 1191 1081 1462 751 
Q 1734 422 2344 422 
Q 2950 422 3222 751 
Q 3494 1081 3494 1831 
L 3494 4666 
L 4128 4666 
L 4128 1753 
Q 4128 841 3676 375 
Q 3225 -91 2344 -91 
Q 1459 -91 1007 375 
Q 556 841 556 1753 
L 556 4666 
z
" transform="scale(0.015625)"/>
       </defs>
       <use xlink:href="#DejaVuSans-28"/>
       <use xlink:href="#DejaVuSans-52" x="39.013672"/>
       <use xlink:href="#DejaVuSans-4f" x="108.496094"/>
       <use xlink:href="#DejaVuSans-43" x="187.207031"/>
       <use xlink:href="#DejaVuSans-2d" x="257.03125"/>
       <use xlink:href="#DejaVuSans-41" x="290.865234"/>
       <use xlink:href="#DejaVuSans-55" x="359.273438"/>
       <use xlink:href="#DejaVuSans-43" x="432.466797"/>
       <use xlink:href="#DejaVuSans-29" x="502.291016"/>
      </g>
     </g>
    </g>
    <g id="xtick_5">
     <g id="line2d_9">
      <g>
       <use xlink:href="#m9473a35817" x="290.016" y="294.712" style="stroke: #000000; stroke-width: 0.8"/>
      </g>
     </g>
     <g id="line2d_10">
      <g>
       <use xlink:href="#m8e32582d82" x="290.016" y="25.44" style="stroke: #000000; stroke-width: 0.8"/>
      </g>
     </g>
     <g id="text_5">
      <!-- BACE-r -->
      <g transform="translate(272.742563 309.310438) scale(0.1 -0.1)">
       <use xlink:href="#DejaVuSans-42"/>
       <use xlink:href="#DejaVuSans-41" x="68.603516"/>
       <use xlink:href="#DejaVuSans-43" x="135.261719"/>
       <use xlink:href="#DejaVuSans-45" x="205.085938"/>
       <use xlink:href="#DejaVuSans-2d" x="268.269531"/>
       <use xlink:href="#DejaVuSans-72" x="304.353516"/>
      </g>
      <!-- (RMSE) -->
      <g transform="translate(271.992563 320.50825) scale(0.1 -0.1)">
       <defs>
        <path id="DejaVuSans-4d" d="M 628 4666 
L 1569 4666 
L 2759 1491 
L 3956 4666 
L 4897 4666 
L 4897 0 
L 4281 0 
L 4281 4097 
L 3078 897 
L 2444 897 
L 1241 4097 
L 1241 0 
L 628 0 
L 628 4666 
z
" transform="scale(0.015625)"/>
       </defs>
       <use xlink:href="#DejaVuSans-28"/>
       <use xlink:href="#DejaVuSans-52" x="39.013672"/>
       <use xlink:href="#DejaVuSans-4d" x="108.496094"/>
       <use xlink:href="#DejaVuSans-53" x="194.775391"/>
       <use xlink:href="#DejaVuSans-45" x="258.251953"/>
       <use xlink:href="#DejaVuSans-29" x="321.435547"/>
      </g>
     </g>
    </g>
    <g id="xtick_6">
     <g id="line2d_11">
      <g>
       <use xlink:href="#m9473a35817" x="342.189932" y="294.712" style="stroke: #000000; stroke-width: 0.8"/>
      </g>
     </g>
     <g id="line2d_12">
      <g>
       <use xlink:href="#m8e32582d82" x="342.189932" y="25.44" style="stroke: #000000; stroke-width: 0.8"/>
      </g>
     </g>
     <g id="text_6">
      <!-- AqSolDB -->
      <g transform="translate(320.779776 309.310438) scale(0.1 -0.1)">
       <defs>
        <path id="DejaVuSans-71" d="M 947 1747 
Q 947 1113 1208 752 
Q 1469 391 1925 391 
Q 2381 391 2643 752 
Q 2906 1113 2906 1747 
Q 2906 2381 2643 2742 
Q 2381 3103 1925 3103 
Q 1469 3103 1208 2742 
Q 947 2381 947 1747 
z
M 2906 525 
Q 2725 213 2448 61 
Q 2172 -91 1784 -91 
Q 1150 -91 751 415 
Q 353 922 353 1747 
Q 353 2572 751 3078 
Q 1150 3584 1784 3584 
Q 2172 3584 2448 3432 
Q 2725 3281 2906 2969 
L 2906 3500 
L 3481 3500 
L 3481 -1331 
L 2906 -1331 
L 2906 525 
z
" transform="scale(0.015625)"/>
        <path id="DejaVuSans-44" d="M 1259 4147 
L 1259 519 
L 2022 519 
Q 2988 519 3436 956 
Q 3884 1394 3884 2338 
Q 3884 3275 3436 3711 
Q 2988 4147 2022 4147 
L 1259 4147 
z
M 628 4666 
L 1925 4666 
Q 3281 4666 3915 4102 
Q 4550 3538 4550 2338 
Q 4550 1131 3912 565 
Q 3275 0 1925 0 
L 628 0 
L 628 4666 
z
" transform="scale(0.015625)"/>
       </defs>
       <use xlink:href="#DejaVuSans-41"/>
       <use xlink:href="#DejaVuSans-71" x="66.658203"/>
       <use xlink:href="#DejaVuSans-53" x="130.134766"/>
       <use xlink:href="#DejaVuSans-6f" x="193.611328"/>
       <use xlink:href="#DejaVuSans-6c" x="254.792969"/>
       <use xlink:href="#DejaVuSans-44" x="282.576172"/>
       <use xlink:href="#DejaVuSans-42" x="359.578125"/>
      </g>
      <!-- (MAE) -->
      <g transform="translate(327.39462 320.50825) scale(0.1 -0.1)">
       <use xlink:href="#DejaVuSans-28"/>
       <use xlink:href="#DejaVuSans-4d" x="39.013672"/>
       <use xlink:href="#DejaVuSans-41" x="125.292969"/>
       <use xlink:href="#DejaVuSans-45" x="193.701172"/>
       <use xlink:href="#DejaVuSans-29" x="256.884766"/>
      </g>
     </g>
    </g>
    <g id="xtick_7">
     <g id="line2d_13">
      <g>
       <use xlink:href="#m9473a35817" x="394.363864" y="294.712" style="stroke: #000000; stroke-width: 0.8"/>
      </g>
     </g>
     <g id="line2d_14">
      <g>
       <use xlink:href="#m8e32582d82" x="394.363864" y="25.44" style="stroke: #000000; stroke-width: 0.8"/>
      </g>
     </g>
     <g id="text_7">
      <!-- Lipophilicity -->
      <g transform="translate(364.387302 309.310438) scale(0.1 -0.1)">
       <defs>
        <path id="DejaVuSans-4c" d="M 628 4666 
L 1259 4666 
L 1259 531 
L 3531 531 
L 3531 0 
L 628 0 
L 628 4666 
z
" transform="scale(0.015625)"/>
        <path id="DejaVuSans-74" d="M 1172 4494 
L 1172 3500 
L 2356 3500 
L 2356 3053 
L 1172 3053 
L 1172 1153 
Q 1172 725 1289 603 
Q 1406 481 1766 481 
L 2356 481 
L 2356 0 
L 1766 0 
Q 1100 0 847 248 
Q 594 497 594 1153 
L 594 3053 
L 172 3053 
L 172 3500 
L 594 3500 
L 594 4494 
L 1172 4494 
z
" transform="scale(0.015625)"/>
        <path id="DejaVuSans-79" d="M 2059 -325 
Q 1816 -950 1584 -1140 
Q 1353 -1331 966 -1331 
L 506 -1331 
L 506 -850 
L 844 -850 
Q 1081 -850 1212 -737 
Q 1344 -625 1503 -206 
L 1606 56 
L 191 3500 
L 800 3500 
L 1894 763 
L 2988 3500 
L 3597 3500 
L 2059 -325 
z
" transform="scale(0.015625)"/>
       </defs>
       <use xlink:href="#DejaVuSans-4c"/>
       <use xlink:href="#DejaVuSans-69" x="55.712891"/>
       <use xlink:href="#DejaVuSans-70" x="83.496094"/>
       <use xlink:href="#DejaVuSans-6f" x="146.972656"/>
       <use xlink:href="#DejaVuSans-70" x="208.154297"/>
       <use xlink:href="#DejaVuSans-68" x="271.630859"/>
       <use xlink:href="#DejaVuSans-69" x="335.009766"/>
       <use xlink:href="#DejaVuSans-6c" x="362.792969"/>
       <use xlink:href="#DejaVuSans-69" x="390.576172"/>
       <use xlink:href="#DejaVuSans-63" x="418.359375"/>
       <use xlink:href="#DejaVuSans-69" x="473.339844"/>
       <use xlink:href="#DejaVuSans-74" x="501.123047"/>
       <use xlink:href="#DejaVuSans-79" x="540.332031"/>
      </g>
      <!-- (MAE) -->
      <g transform="translate(379.568552 320.50825) scale(0.1 -0.1)">
       <use xlink:href="#DejaVuSans-28"/>
       <use xlink:href="#DejaVuSans-4d" x="39.013672"/>
       <use xlink:href="#DejaVuSans-41" x="125.292969"/>
       <use xlink:href="#DejaVuSans-45" x="193.701172"/>
       <use xlink:href="#DejaVuSans-29" x="256.884766"/>
      </g>
     </g>
    </g>
    <g id="xtick_8">
     <g id="line2d_15">
      <g>
       <use xlink:href="#m9473a35817" x="446.537796" y="294.712" style="stroke: #000000; stroke-width: 0.8"/>
      </g>
     </g>
     <g id="line2d_16">
      <g>
       <use xlink:href="#m8e32582d82" x="446.537796" y="25.44" style="stroke: #000000; stroke-width: 0.8"/>
      </g>
     </g>
     <g id="text_8">
      <!-- Caco-2 -->
      <g transform="translate(429.094828 309.310438) scale(0.1 -0.1)">
       <use xlink:href="#DejaVuSans-43"/>
       <use xlink:href="#DejaVuSans-61" x="69.824219"/>
       <use xlink:href="#DejaVuSans-63" x="131.103516"/>
       <use xlink:href="#DejaVuSans-6f" x="186.083984"/>
       <use xlink:href="#DejaVuSans-2d" x="249.140625"/>
       <use xlink:href="#DejaVuSans-32" x="285.224609"/>
      </g>
      <!-- (MAE) -->
      <g transform="translate(431.742484 320.50825) scale(0.1 -0.1)">
       <use xlink:href="#DejaVuSans-28"/>
       <use xlink:href="#DejaVuSans-4d" x="39.013672"/>
       <use xlink:href="#DejaVuSans-41" x="125.292969"/>
       <use xlink:href="#DejaVuSans-45" x="193.701172"/>
       <use xlink:href="#DejaVuSans-29" x="256.884766"/>
      </g>
     </g>
    </g>
    <g id="xtick_9">
     <g id="line2d_17">
      <g>
       <use xlink:href="#m9473a35817" x="498.711728" y="294.712" style="stroke: #000000; stroke-width: 0.8"/>
      </g>
     </g>
     <g id="line2d_18">
      <g>
       <use xlink:href="#m8e32582d82" x="498.711728" y="25.44" style="stroke: #000000; stroke-width: 0.8"/>
      </g>
     </g>
     <g id="text_9">
      <!-- Matbench -->
      <g transform="translate(474.035947 309.310438) scale(0.1 -0.1)">
       <defs>
        <path id="DejaVuSans-62" d="M 3116 1747 
Q 3116 2381 2855 2742 
Q 2594 3103 2138 3103 
Q 1681 3103 1420 2742 
Q 1159 2381 1159 1747 
Q 1159 1113 1420 752 
Q 1681 391 2138 391 
Q 2594 391 2855 752 
Q 3116 1113 3116 1747 
z
M 1159 2969 
Q 1341 3281 1617 3432 
Q 1894 3584 2278 3584 
Q 2916 3584 3314 3078 
Q 3713 2572 3713 1747 
Q 3713 922 3314 415 
Q 2916 -91 2278 -91 
Q 1894 -91 1617 61 
Q 1341 213 1159 525 
L 1159 0 
L 581 0 
L 581 4863 
L 1159 4863 
L 1159 2969 
z
" transform="scale(0.015625)"/>
       </defs>
       <use xlink:href="#DejaVuSans-4d"/>
       <use xlink:href="#DejaVuSans-61" x="86.279297"/>
       <use xlink:href="#DejaVuSans-74" x="147.558594"/>
       <use xlink:href="#DejaVuSans-62" x="186.767578"/>
       <use xlink:href="#DejaVuSans-65" x="250.244141"/>
       <use xlink:href="#DejaVuSans-6e" x="311.767578"/>
       <use xlink:href="#DejaVuSans-63" x="375.146484"/>
       <use xlink:href="#DejaVuSans-68" x="430.126953"/>
      </g>
      <!-- Expt. Gap -->
      <g transform="translate(474.167978 320.50825) scale(0.1 -0.1)">
       <defs>
        <path id="DejaVuSans-78" d="M 3513 3500 
L 2247 1797 
L 3578 0 
L 2900 0 
L 1881 1375 
L 863 0 
L 184 0 
L 1544 1831 
L 300 3500 
L 978 3500 
L 1906 2253 
L 2834 3500 
L 3513 3500 
z
" transform="scale(0.015625)"/>
        <path id="DejaVuSans-2e" d="M 684 794 
L 1344 794 
L 1344 0 
L 684 0 
L 684 794 
z
" transform="scale(0.015625)"/>
        <path id="DejaVuSans-47" d="M 3809 666 
L 3809 1919 
L 2778 1919 
L 2778 2438 
L 4434 2438 
L 4434 434 
Q 4069 175 3628 42 
Q 3188 -91 2688 -91 
Q 1594 -91 976 548 
Q 359 1188 359 2328 
Q 359 3472 976 4111 
Q 1594 4750 2688 4750 
Q 3144 4750 3555 4637 
Q 3966 4525 4313 4306 
L 4313 3634 
Q 3963 3931 3569 4081 
Q 3175 4231 2741 4231 
Q 1884 4231 1454 3753 
Q 1025 3275 1025 2328 
Q 1025 1384 1454 906 
Q 1884 428 2741 428 
Q 3075 428 3337 486 
Q 3600 544 3809 666 
z
" transform="scale(0.015625)"/>
       </defs>
       <use xlink:href="#DejaVuSans-45"/>
       <use xlink:href="#DejaVuSans-78" x="63.183594"/>
       <use xlink:href="#DejaVuSans-70" x="122.363281"/>
       <use xlink:href="#DejaVuSans-74" x="185.839844"/>
       <use xlink:href="#DejaVuSans-2e" x="225.048828"/>
       <use xlink:href="#DejaVuSans-20" x="256.835938"/>
       <use xlink:href="#DejaVuSans-47" x="288.623047"/>
       <use xlink:href="#DejaVuSans-61" x="366.113281"/>
       <use xlink:href="#DejaVuSans-70" x="427.392578"/>
      </g>
      <!-- (MAE) -->
      <g transform="translate(483.916416 331.706063) scale(0.1 -0.1)">
       <use xlink:href="#DejaVuSans-28"/>
       <use xlink:href="#DejaVuSans-4d" x="39.013672"/>
       <use xlink:href="#DejaVuSans-41" x="125.292969"/>
       <use xlink:href="#DejaVuSans-45" x="193.701172"/>
       <use xlink:href="#DejaVuSans-29" x="256.884766"/>
      </g>
     </g>
    </g>
    <g id="text_10">
     <!-- Dataset (Metric) -->
     <g transform="translate(249.401156 345.384187) scale(0.1 -0.1)">
      <use xlink:href="#DejaVuSans-44"/>
      <use xlink:href="#DejaVuSans-61" x="77.001953"/>
      <use xlink:href="#DejaVuSans-74" x="138.28125"/>
      <use xlink:href="#DejaVuSans-61" x="177.490234"/>
      <use xlink:href="#DejaVuSans-73" x="238.769531"/>
      <use xlink:href="#DejaVuSans-65" x="290.869141"/>
      <use xlink:href="#DejaVuSans-74" x="352.392578"/>
      <use xlink:href="#DejaVuSans-20" x="391.601562"/>
      <use xlink:href="#DejaVuSans-28" x="423.388672"/>
      <use xlink:href="#DejaVuSans-4d" x="462.402344"/>
      <use xlink:href="#DejaVuSans-65" x="548.681641"/>
      <use xlink:href="#DejaVuSans-74" x="610.205078"/>
      <use xlink:href="#DejaVuSans-72" x="649.414062"/>
      <use xlink:href="#DejaVuSans-69" x="690.527344"/>
      <use xlink:href="#DejaVuSans-63" x="718.310547"/>
      <use xlink:href="#DejaVuSans-29" x="773.291016"/>
     </g>
    </g>
   </g>
   <g id="matplotlib.axis_2">
    <g id="ytick_1">
     <g id="line2d_19">
      <defs>
       <path id="mdd566edd07" d="M 0 0 
L -3.5 0 
" style="stroke: #000000; stroke-width: 0.8"/>
      </defs>
      <g>
       <use xlink:href="#mdd566edd07" x="51.842" y="294.712" style="stroke: #000000; stroke-width: 0.8"/>
      </g>
     </g>
     <g id="text_11">
      <!-- 0.5 -->
      <g transform="translate(28.938875 298.511219) scale(0.1 -0.1)">
       <defs>
        <path id="DejaVuSans-35" d="M 691 4666 
L 3169 4666 
L 3169 4134 
L 1269 4134 
L 1269 2991 
Q 1406 3038 1543 3061 
Q 1681 3084 1819 3084 
Q 2600 3084 3056 2656 
Q 3513 2228 3513 1497 
Q 3513 744 3044 326 
Q 2575 -91 1722 -91 
Q 1428 -91 1123 -41 
Q 819 9 494 109 
L 494 744 
Q 775 591 1075 516 
Q 1375 441 1709 441 
Q 2250 441 2565 725 
Q 2881 1009 2881 1497 
Q 2881 1984 2565 2268 
Q 2250 2553 1709 2553 
Q 1456 2553 1204 2497 
Q 953 2441 691 2322 
L 691 4666 
z
" transform="scale(0.015625)"/>
       </defs>
       <use xlink:href="#DejaVuSans-30"/>
       <use xlink:href="#DejaVuSans-2e" x="63.623047"/>
       <use xlink:href="#DejaVuSans-35" x="95.410156"/>
      </g>
     </g>
    </g>
    <g id="ytick_2">
     <g id="line2d_20">
      <g>
       <use xlink:href="#mdd566edd07" x="51.842" y="240.8576" style="stroke: #000000; stroke-width: 0.8"/>
      </g>
     </g>
     <g id="text_12">
      <!-- 0.6 -->
      <g transform="translate(28.938875 244.656819) scale(0.1 -0.1)">
       <use xlink:href="#DejaVuSans-30"/>
       <use xlink:href="#DejaVuSans-2e" x="63.623047"/>
       <use xlink:href="#DejaVuSans-36" x="95.410156"/>
      </g>
     </g>
    </g>
    <g id="ytick_3">
     <g id="line2d_21">
      <g>
       <use xlink:href="#mdd566edd07" x="51.842" y="187.0032" style="stroke: #000000; stroke-width: 0.8"/>
      </g>
     </g>
     <g id="text_13">
      <!-- 0.7 -->
      <g transform="translate(28.938875 190.802419) scale(0.1 -0.1)">
       <defs>
        <path id="DejaVuSans-37" d="M 525 4666 
L 3525 4666 
L 3525 4397 
L 1831 0 
L 1172 0 
L 2766 4134 
L 525 4134 
L 525 4666 
z
" transform="scale(0.015625)"/>
       </defs>
       <use xlink:href="#DejaVuSans-30"/>
       <use xlink:href="#DejaVuSans-2e" x="63.623047"/>
       <use xlink:href="#DejaVuSans-37" x="95.410156"/>
      </g>
     </g>
    </g>
    <g id="ytick_4">
     <g id="line2d_22">
      <g>
       <use xlink:href="#mdd566edd07" x="51.842" y="133.1488" style="stroke: #000000; stroke-width: 0.8"/>
      </g>
     </g>
     <g id="text_14">
      <!-- 0.8 -->
      <g transform="translate(28.938875 136.948019) scale(0.1 -0.1)">
       <defs>
        <path id="DejaVuSans-38" d="M 2034 2216 
Q 1584 2216 1326 1975 
Q 1069 1734 1069 1313 
Q 1069 891 1326 650 
Q 1584 409 2034 409 
Q 2484 409 2743 651 
Q 3003 894 3003 1313 
Q 3003 1734 2745 1975 
Q 2488 2216 2034 2216 
z
M 1403 2484 
Q 997 2584 770 2862 
Q 544 3141 544 3541 
Q 544 4100 942 4425 
Q 1341 4750 2034 4750 
Q 2731 4750 3128 4425 
Q 3525 4100 3525 3541 
Q 3525 3141 3298 2862 
Q 3072 2584 2669 2484 
Q 3125 2378 3379 2068 
Q 3634 1759 3634 1313 
Q 3634 634 3220 271 
Q 2806 -91 2034 -91 
Q 1263 -91 848 271 
Q 434 634 434 1313 
Q 434 1759 690 2068 
Q 947 2378 1403 2484 
z
M 1172 3481 
Q 1172 3119 1398 2916 
Q 1625 2713 2034 2713 
Q 2441 2713 2670 2916 
Q 2900 3119 2900 3481 
Q 2900 3844 2670 4047 
Q 2441 4250 2034 4250 
Q 1625 4250 1398 4047 
Q 1172 3844 1172 3481 
z
" transform="scale(0.015625)"/>
       </defs>
       <use xlink:href="#DejaVuSans-30"/>
       <use xlink:href="#DejaVuSans-2e" x="63.623047"/>
       <use xlink:href="#DejaVuSans-38" x="95.410156"/>
      </g>
     </g>
    </g>
    <g id="ytick_5">
     <g id="line2d_23">
      <g>
       <use xlink:href="#mdd566edd07" x="51.842" y="79.2944" style="stroke: #000000; stroke-width: 0.8"/>
      </g>
     </g>
     <g id="text_15">
      <!-- 0.9 -->
      <g transform="translate(28.938875 83.093619) scale(0.1 -0.1)">
       <defs>
        <path id="DejaVuSans-39" d="M 703 97 
L 703 672 
Q 941 559 1184 500 
Q 1428 441 1663 441 
Q 2288 441 2617 861 
Q 2947 1281 2994 2138 
Q 2813 1869 2534 1725 
Q 2256 1581 1919 1581 
Q 1219 1581 811 2004 
Q 403 2428 403 3163 
Q 403 3881 828 4315 
Q 1253 4750 1959 4750 
Q 2769 4750 3195 4129 
Q 3622 3509 3622 2328 
Q 3622 1225 3098 567 
Q 2575 -91 1691 -91 
Q 1453 -91 1209 -44 
Q 966 3 703 97 
z
M 1959 2075 
Q 2384 2075 2632 2365 
Q 2881 2656 2881 3163 
Q 2881 3666 2632 3958 
Q 2384 4250 1959 4250 
Q 1534 4250 1286 3958 
Q 1038 3666 1038 3163 
Q 1038 2656 1286 2365 
Q 1534 2075 1959 2075 
z
" transform="scale(0.015625)"/>
       </defs>
       <use xlink:href="#DejaVuSans-30"/>
       <use xlink:href="#DejaVuSans-2e" x="63.623047"/>
       <use xlink:href="#DejaVuSans-39" x="95.410156"/>
      </g>
     </g>
    </g>
    <g id="ytick_6">
     <g id="line2d_24">
      <g>
       <use xlink:href="#mdd566edd07" x="51.842" y="25.44" style="stroke: #000000; stroke-width: 0.8"/>
      </g>
     </g>
     <g id="text_16">
      <!-- 1.0 -->
      <g transform="translate(28.938875 29.239219) scale(0.1 -0.1)">
       <use xlink:href="#DejaVuSans-31"/>
       <use xlink:href="#DejaVuSans-2e" x="63.623047"/>
       <use xlink:href="#DejaVuSans-30" x="95.410156"/>
      </g>
     </g>
    </g>
    <g id="text_17">
     <!-- Pearson R / $r^2$ / ROC-AUC -->
     <g style="fill: #1f77b4" transform="translate(22.859188 222.876) rotate(-90) scale(0.1 -0.1)">
      <defs>
       <path id="DejaVuSans-2f" d="M 1625 4666 
L 2156 4666 
L 531 -594 
L 0 -594 
L 1625 4666 
z
" transform="scale(0.015625)"/>
      </defs>
      <use xlink:href="#DejaVuSans-50" transform="translate(0 0.765625)"/>
      <use xlink:href="#DejaVuSans-65" transform="translate(60.302734 0.765625)"/>
      <use xlink:href="#DejaVuSans-61" transform="translate(121.826172 0.765625)"/>
      <use xlink:href="#DejaVuSans-72" transform="translate(183.105469 0.765625)"/>
      <use xlink:href="#DejaVuSans-73" transform="translate(224.21875 0.765625)"/>
      <use xlink:href="#DejaVuSans-6f" transform="translate(276.318359 0.765625)"/>
      <use xlink:href="#DejaVuSans-6e" transform="translate(337.5 0.765625)"/>
      <use xlink:href="#DejaVuSans-20" transform="translate(400.878906 0.765625)"/>
      <use xlink:href="#DejaVuSans-52" transform="translate(432.666016 0.765625)"/>
      <use xlink:href="#DejaVuSans-20" transform="translate(502.148438 0.765625)"/>
      <use xlink:href="#DejaVuSans-2f" transform="translate(533.935547 0.765625)"/>
      <use xlink:href="#DejaVuSans-20" transform="translate(567.626953 0.765625)"/>
      <use xlink:href="#DejaVuSans-Oblique-72" transform="translate(599.414062 0.765625)"/>
      <use xlink:href="#DejaVuSans-32" transform="translate(645.17724 39.046875) scale(0.7)"/>
      <use xlink:href="#DejaVuSans-20" transform="translate(692.447747 0.765625)"/>
      <use xlink:href="#DejaVuSans-2f" transform="translate(724.234857 0.765625)"/>
      <use xlink:href="#DejaVuSans-20" transform="translate(757.926263 0.765625)"/>
      <use xlink:href="#DejaVuSans-52" transform="translate(789.713372 0.765625)"/>
      <use xlink:href="#DejaVuSans-4f" transform="translate(859.195794 0.765625)"/>
      <use xlink:href="#DejaVuSans-43" transform="translate(937.906732 0.765625)"/>
      <use xlink:href="#DejaVuSans-2d" transform="translate(1007.730951 0.765625)"/>
      <use xlink:href="#DejaVuSans-41" transform="translate(1043.814935 0.765625)"/>
      <use xlink:href="#DejaVuSans-55" transform="translate(1112.223138 0.765625)"/>
      <use xlink:href="#DejaVuSans-43" transform="translate(1185.416497 0.765625)"/>
     </g>
    </g>
   </g>
   <g id="line2d_25">
    <defs>
     <path id="ma7c54a0869" d="M 0 1.691974 
C 0.448717 1.691974 0.879116 1.513697 1.196406 1.196406 
C 1.513697 0.879116 1.691974 0.448717 1.691974 0 
C 1.691974 -0.448717 1.513697 -0.879116 1.196406 -1.196406 
C 0.879116 -1.513697 0.448717 -1.691974 0 -1.691974 
C -0.448717 -1.691974 -0.879116 -1.513697 -1.196406 -1.196406 
C -1.513697 -0.879116 -1.691974 -0.448717 -1.691974 0 
C -1.691974 0.448717 -1.513697 0.879116 -1.196406 1.196406 
C -0.879116 1.513697 -0.448717 1.691974 0 1.691974 
z
" style="stroke: #1f77b4; stroke-width: 2.025"/>
    </defs>
    <g clip-path="url(#p96ff1013e3)">
     <use xlink:href="#ma7c54a0869" x="81.320272" y="74.515729" style="fill: #1f77b4; stroke: #1f77b4; stroke-width: 2.025"/>
     <use xlink:href="#ma7c54a0869" x="133.494204" y="204.686827" style="fill: #1f77b4; stroke: #1f77b4; stroke-width: 2.025"/>
     <use xlink:href="#ma7c54a0869" x="185.668136" y="64.559286" style="fill: #1f77b4; stroke: #1f77b4; stroke-width: 2.025"/>
     <use xlink:href="#ma7c54a0869" x="237.842068" y="110.011096" style="fill: #1f77b4; stroke: #1f77b4; stroke-width: 2.025"/>
    </g>
   </g>
   <g id="line2d_26">
    <path d="M 73.494182 78.473402 
L 89.146361 78.473402 
M 81.320272 78.473402 
L 81.320272 70.558056 
M 73.494182 70.558056 
L 89.146361 70.558056 
" clip-path="url(#p96ff1013e3)" style="fill: none; stroke: #1f77b4; stroke-width: 2.7; stroke-linecap: square"/>
   </g>
   <g id="line2d_27">
    <path d="M 125.668114 211.180167 
L 141.320294 211.180167 
M 133.494204 211.180167 
L 133.494204 198.193487 
M 125.668114 198.193487 
L 141.320294 198.193487 
" clip-path="url(#p96ff1013e3)" style="fill: none; stroke: #1f77b4; stroke-width: 2.7; stroke-linecap: square"/>
   </g>
   <g id="line2d_28">
    <path d="M 177.842046 65.455428 
L 193.494226 65.455428 
M 185.668136 65.455428 
L 185.668136 63.663144 
M 177.842046 63.663144 
L 193.494226 63.663144 
" clip-path="url(#p96ff1013e3)" style="fill: none; stroke: #1f77b4; stroke-width: 2.7; stroke-linecap: square"/>
   </g>
   <g id="line2d_29">
    <path d="M 230.015978 114.682969 
L 245.668158 114.682969 
M 237.842068 114.682969 
L 237.842068 105.339224 
M 230.015978 105.339224 
L 245.668158 105.339224 
" clip-path="url(#p96ff1013e3)" style="fill: none; stroke: #1f77b4; stroke-width: 2.7; stroke-linecap: square"/>
   </g>
   <g id="patch_3">
    <path d="M 51.842 294.712 
L 51.842 25.44 
" style="fill: none; stroke: #000000; stroke-width: 0.8; stroke-linejoin: miter; stroke-linecap: square"/>
   </g>
   <g id="patch_4">
    <path d="M 528.19 294.712 
L 528.19 25.44 
" style="fill: none; stroke: #000000; stroke-width: 0.8; stroke-linejoin: miter; stroke-linecap: square"/>
   </g>
   <g id="patch_5">
    <path d="M 51.842 294.712 
L 528.19 294.712 
" style="fill: none; stroke: #000000; stroke-width: 0.8; stroke-linejoin: miter; stroke-linecap: square"/>
   </g>
   <g id="patch_6">
    <path d="M 51.842 25.44 
L 528.19 25.44 
" style="fill: none; stroke: #000000; stroke-width: 0.8; stroke-linejoin: miter; stroke-linecap: square"/>
   </g>
   <g id="PathCollection_2">
    <defs>
     <path id="mb542dd527b" d="M 0 -4 
L -4 4 
L 4 4 
z
"/>
    </defs>
    <g clip-path="url(#p96ff1013e3)">
     <use xlink:href="#mb542dd527b" x="81.320272" y="108.91432" style="fill: #1f77b4"/>
    </g>
   </g>
   <g id="PathCollection_3">
    <g clip-path="url(#p96ff1013e3)">
     <use xlink:href="#mb542dd527b" x="133.494204" y="127.76336" style="fill: #1f77b4"/>
     <use xlink:href="#mb542dd527b" x="133.494204" y="149.30512" style="fill: #1f77b4"/>
    </g>
   </g>
   <g id="PathCollection_4">
    <g clip-path="url(#p96ff1013e3)">
     <use xlink:href="#mb542dd527b" x="185.668136" y="52.3672" style="fill: #1f77b4"/>
    </g>
   </g>
   <g id="PathCollection_5">
    <g clip-path="url(#p96ff1013e3)">
     <use xlink:href="#mb542dd527b" x="237.842068" y="100.83616" style="fill: #1f77b4"/>
    </g>
   </g>
  </g>
  <g id="axes_2">
   <g id="PathCollection_6">
    <path d="M 301.19634 158.008953 
L 278.83566 158.008953 
" clip-path="url(#p96ff1013e3)" style="fill: #ff7f0e; stroke-dasharray: 6.618761,2.862167; stroke-dashoffset: 0; stroke: #ff7f0e; stroke-width: 1.788854"/>
    <path d="M 353.370272 111.387583 
L 331.009592 111.387583 
" clip-path="url(#p96ff1013e3)" style="fill: #ff7f0e; stroke-dasharray: 6.618761,2.862167; stroke-dashoffset: 0; stroke: #ff7f0e; stroke-width: 1.788854"/>
    <path d="M 457.718136 89.916988 
L 435.357456 89.916988 
" clip-path="url(#p96ff1013e3)" style="fill: #ff7f0e; stroke-dasharray: 6.618761,2.862167; stroke-dashoffset: 0; stroke: #ff7f0e; stroke-width: 1.788854"/>
    <path d="M 405.544204 77.586254 
L 383.183524 77.586254 
" clip-path="url(#p96ff1013e3)" style="fill: #ff7f0e; stroke-dasharray: 6.618761,2.862167; stroke-dashoffset: 0; stroke: #ff7f0e; stroke-width: 1.788854"/>
    <path d="M 509.892068 46.925213 
L 487.531388 46.925213 
" clip-path="url(#p96ff1013e3)" style="fill: #ff7f0e; stroke-dasharray: 6.618761,2.862167; stroke-dashoffset: 0; stroke: #ff7f0e; stroke-width: 1.788854"/>
   </g>
   <g id="matplotlib.axis_3">
    <g id="ytick_7">
     <g id="line2d_30">
      <defs>
       <path id="m77e2010b97" d="M 0 0 
L 3.5 0 
" style="stroke: #000000; stroke-width: 0.8"/>
      </defs>
      <g>
       <use xlink:href="#m77e2010b97" x="528.19" y="25.44" style="stroke: #000000; stroke-width: 0.8"/>
      </g>
     </g>
     <g id="text_18">
      <!-- 0.0 -->
      <g transform="translate(535.19 29.239219) scale(0.1 -0.1)">
       <use xlink:href="#DejaVuSans-30"/>
       <use xlink:href="#DejaVuSans-2e" x="63.623047"/>
       <use xlink:href="#DejaVuSans-30" x="95.410156"/>
      </g>
     </g>
    </g>
    <g id="ytick_8">
     <g id="line2d_31">
      <g>
       <use xlink:href="#m77e2010b97" x="528.19" y="63.907429" style="stroke: #000000; stroke-width: 0.8"/>
      </g>
     </g>
     <g id="text_19">
      <!-- 0.2 -->
      <g transform="translate(535.19 67.706647) scale(0.1 -0.1)">
       <use xlink:href="#DejaVuSans-30"/>
       <use xlink:href="#DejaVuSans-2e" x="63.623047"/>
       <use xlink:href="#DejaVuSans-32" x="95.410156"/>
      </g>
     </g>
    </g>
    <g id="ytick_9">
     <g id="line2d_32">
      <g>
       <use xlink:href="#m77e2010b97" x="528.19" y="102.374857" style="stroke: #000000; stroke-width: 0.8"/>
      </g>
     </g>
     <g id="text_20">
      <!-- 0.4 -->
      <g transform="translate(535.19 106.174076) scale(0.1 -0.1)">
       <defs>
        <path id="DejaVuSans-34" d="M 2419 4116 
L 825 1625 
L 2419 1625 
L 2419 4116 
z
M 2253 4666 
L 3047 4666 
L 3047 1625 
L 3713 1625 
L 3713 1100 
L 3047 1100 
L 3047 0 
L 2419 0 
L 2419 1100 
L 313 1100 
L 313 1709 
L 2253 4666 
z
" transform="scale(0.015625)"/>
       </defs>
       <use xlink:href="#DejaVuSans-30"/>
       <use xlink:href="#DejaVuSans-2e" x="63.623047"/>
       <use xlink:href="#DejaVuSans-34" x="95.410156"/>
      </g>
     </g>
    </g>
    <g id="ytick_10">
     <g id="line2d_33">
      <g>
       <use xlink:href="#m77e2010b97" x="528.19" y="140.842286" style="stroke: #000000; stroke-width: 0.8"/>
      </g>
     </g>
     <g id="text_21">
      <!-- 0.6 -->
      <g transform="translate(535.19 144.641504) scale(0.1 -0.1)">
       <use xlink:href="#DejaVuSans-30"/>
       <use xlink:href="#DejaVuSans-2e" x="63.623047"/>
       <use xlink:href="#DejaVuSans-36" x="95.410156"/>
      </g>
     </g>
    </g>
    <g id="ytick_11">
     <g id="line2d_34">
      <g>
       <use xlink:href="#m77e2010b97" x="528.19" y="179.309714" style="stroke: #000000; stroke-width: 0.8"/>
      </g>
     </g>
     <g id="text_22">
      <!-- 0.8 -->
      <g transform="translate(535.19 183.108933) scale(0.1 -0.1)">
       <use xlink:href="#DejaVuSans-30"/>
       <use xlink:href="#DejaVuSans-2e" x="63.623047"/>
       <use xlink:href="#DejaVuSans-38" x="95.410156"/>
      </g>
     </g>
    </g>
    <g id="ytick_12">
     <g id="line2d_35">
      <g>
       <use xlink:href="#m77e2010b97" x="528.19" y="217.777143" style="stroke: #000000; stroke-width: 0.8"/>
      </g>
     </g>
     <g id="text_23">
      <!-- 1.0 -->
      <g transform="translate(535.19 221.576362) scale(0.1 -0.1)">
       <use xlink:href="#DejaVuSans-31"/>
       <use xlink:href="#DejaVuSans-2e" x="63.623047"/>
       <use xlink:href="#DejaVuSans-30" x="95.410156"/>
      </g>
     </g>
    </g>
    <g id="ytick_13">
     <g id="line2d_36">
      <g>
       <use xlink:href="#m77e2010b97" x="528.19" y="256.244571" style="stroke: #000000; stroke-width: 0.8"/>
      </g>
     </g>
     <g id="text_24">
      <!-- 1.2 -->
      <g transform="translate(535.19 260.04379) scale(0.1 -0.1)">
       <use xlink:href="#DejaVuSans-31"/>
       <use xlink:href="#DejaVuSans-2e" x="63.623047"/>
       <use xlink:href="#DejaVuSans-32" x="95.410156"/>
      </g>
     </g>
    </g>
    <g id="ytick_14">
     <g id="line2d_37">
      <g>
       <use xlink:href="#m77e2010b97" x="528.19" y="294.712" style="stroke: #000000; stroke-width: 0.8"/>
      </g>
     </g>
     <g id="text_25">
      <!-- 1.4 -->
      <g transform="translate(535.19 298.511219) scale(0.1 -0.1)">
       <use xlink:href="#DejaVuSans-31"/>
       <use xlink:href="#DejaVuSans-2e" x="63.623047"/>
       <use xlink:href="#DejaVuSans-34" x="95.410156"/>
      </g>
     </g>
    </g>
    <g id="text_26">
     <!-- MAE / RMSE -->
     <g style="fill: #ff7f0e" transform="translate(562.691563 189.954125) rotate(-90) scale(0.1 -0.1)">
      <use xlink:href="#DejaVuSans-4d"/>
      <use xlink:href="#DejaVuSans-41" x="86.279297"/>
      <use xlink:href="#DejaVuSans-45" x="154.6875"/>
      <use xlink:href="#DejaVuSans-20" x="217.871094"/>
      <use xlink:href="#DejaVuSans-2f" x="249.658203"/>
      <use xlink:href="#DejaVuSans-20" x="283.349609"/>
      <use xlink:href="#DejaVuSans-52" x="315.136719"/>
      <use xlink:href="#DejaVuSans-4d" x="384.619141"/>
      <use xlink:href="#DejaVuSans-53" x="470.898438"/>
      <use xlink:href="#DejaVuSans-45" x="534.375"/>
     </g>
    </g>
   </g>
   <g id="line2d_38">
    <defs>
     <path id="m7f236af942" d="M 0 1.691974 
C 0.448717 1.691974 0.879116 1.513697 1.196406 1.196406 
C 1.513697 0.879116 1.691974 0.448717 1.691974 0 
C 1.691974 -0.448717 1.513697 -0.879116 1.196406 -1.196406 
C 0.879116 -1.513697 0.448717 -1.691974 0 -1.691974 
C -0.448717 -1.691974 -0.879116 -1.513697 -1.196406 -1.196406 
C -1.513697 -0.879116 -1.691974 -0.448717 -1.691974 0 
C -1.691974 0.448717 -1.513697 0.879116 -1.196406 1.196406 
C -0.879116 1.513697 -0.448717 1.691974 0 1.691974 
z
" style="stroke: #ff7f0e; stroke-width: 2.025"/>
    </defs>
    <g clip-path="url(#p96ff1013e3)">
     <use xlink:href="#m7f236af942" x="290.016" y="213.044802" style="fill: #ff7f0e; stroke: #ff7f0e; stroke-width: 2.025"/>
     <use xlink:href="#m7f236af942" x="342.189932" y="147.012227" style="fill: #ff7f0e; stroke: #ff7f0e; stroke-width: 2.025"/>
     <use xlink:href="#m7f236af942" x="394.363864" y="99.193435" style="fill: #ff7f0e; stroke: #ff7f0e; stroke-width: 2.025"/>
     <use xlink:href="#m7f236af942" x="446.537796" y="116.504255" style="fill: #ff7f0e; stroke: #ff7f0e; stroke-width: 2.025"/>
     <use xlink:href="#m7f236af942" x="498.711728" y="55.834387" style="fill: #ff7f0e; stroke: #ff7f0e; stroke-width: 2.025"/>
    </g>
   </g>
   <g id="line2d_39">
    <path d="M 282.18991 209.552073 
L 297.84209 209.552073 
M 290.016 209.552073 
L 290.016 216.537532 
M 282.18991 216.537532 
L 297.84209 216.537532 
" clip-path="url(#p96ff1013e3)" style="fill: none; stroke: #ff7f0e; stroke-width: 2.7; stroke-linecap: square"/>
   </g>
   <g id="line2d_40">
    <path d="M 334.363842 146.095967 
L 350.016022 146.095967 
M 342.189932 146.095967 
L 342.189932 147.928487 
M 334.363842 147.928487 
L 350.016022 147.928487 
" clip-path="url(#p96ff1013e3)" style="fill: none; stroke: #ff7f0e; stroke-width: 2.7; stroke-linecap: square"/>
   </g>
   <g id="line2d_41">
    <path d="M 386.537774 98.299915 
L 402.189954 98.299915 
M 394.363864 98.299915 
L 394.363864 100.086955 
M 386.537774 100.086955 
L 402.189954 100.086955 
" clip-path="url(#p96ff1013e3)" style="fill: none; stroke: #ff7f0e; stroke-width: 2.7; stroke-linecap: square"/>
   </g>
   <g id="line2d_42">
    <path d="M 438.711706 114.274478 
L 454.363886 114.274478 
M 446.537796 114.274478 
L 446.537796 118.734031 
M 438.711706 118.734031 
L 454.363886 118.734031 
" clip-path="url(#p96ff1013e3)" style="fill: none; stroke: #ff7f0e; stroke-width: 2.7; stroke-linecap: square"/>
   </g>
   <g id="line2d_43">
    <path d="M 490.885639 55.51306 
L 506.537818 55.51306 
M 498.711728 55.51306 
L 498.711728 56.155715 
M 490.885639 56.155715 
L 506.537818 56.155715 
" clip-path="url(#p96ff1013e3)" style="fill: none; stroke: #ff7f0e; stroke-width: 2.7; stroke-linecap: square"/>
   </g>
   <g id="patch_7">
    <path d="M 51.842 294.712 
L 51.842 25.44 
" style="fill: none; stroke: #000000; stroke-width: 0.8; stroke-linejoin: miter; stroke-linecap: square"/>
   </g>
   <g id="patch_8">
    <path d="M 528.19 294.712 
L 528.19 25.44 
" style="fill: none; stroke: #000000; stroke-width: 0.8; stroke-linejoin: miter; stroke-linecap: square"/>
   </g>
   <g id="patch_9">
    <path d="M 51.842 294.712 
L 528.19 294.712 
" style="fill: none; stroke: #000000; stroke-width: 0.8; stroke-linejoin: miter; stroke-linecap: square"/>
   </g>
   <g id="patch_10">
    <path d="M 51.842 25.44 
L 528.19 25.44 
" style="fill: none; stroke: #000000; stroke-width: 0.8; stroke-linejoin: miter; stroke-linecap: square"/>
   </g>
   <g id="PathCollection_7">
    <defs>
     <path id="m65563463e1" d="M 0 -4 
L -4 4 
L 4 4 
z
"/>
    </defs>
    <g clip-path="url(#p96ff1013e3)">
     <use xlink:href="#m65563463e1" x="290.016" y="279.325029" style="fill: #ff7f0e"/>
    </g>
   </g>
   <g id="PathCollection_8">
    <g clip-path="url(#p96ff1013e3)">
     <use xlink:href="#m65563463e1" x="342.189932" y="171.616229" style="fill: #ff7f0e"/>
    </g>
   </g>
   <g id="PathCollection_9">
    <g clip-path="url(#p96ff1013e3)">
     <use xlink:href="#m65563463e1" x="394.363864" y="115.838457" style="fill: #ff7f0e"/>
    </g>
   </g>
   <g id="PathCollection_10">
    <g clip-path="url(#p96ff1013e3)">
     <use xlink:href="#m65563463e1" x="446.537796" y="77.371029" style="fill: #ff7f0e"/>
    </g>
   </g>
   <g id="PathCollection_11">
    <g clip-path="url(#p96ff1013e3)">
     <use xlink:href="#m65563463e1" x="498.711728" y="81.217771" style="fill: #ff7f0e"/>
    </g>
   </g>
   <g id="text_27">
    <!-- Comparison of performance bounds and ML performance -->
    <g transform="translate(118.184438 19.44) scale(0.12 -0.12)">
     <defs>
      <path id="DejaVuSans-6d" d="M 3328 2828 
Q 3544 3216 3844 3400 
Q 4144 3584 4550 3584 
Q 5097 3584 5394 3201 
Q 5691 2819 5691 2113 
L 5691 0 
L 5113 0 
L 5113 2094 
Q 5113 2597 4934 2840 
Q 4756 3084 4391 3084 
Q 3944 3084 3684 2787 
Q 3425 2491 3425 1978 
L 3425 0 
L 2847 0 
L 2847 2094 
Q 2847 2600 2669 2842 
Q 2491 3084 2119 3084 
Q 1678 3084 1418 2786 
Q 1159 2488 1159 1978 
L 1159 0 
L 581 0 
L 581 3500 
L 1159 3500 
L 1159 2956 
Q 1356 3278 1631 3431 
Q 1906 3584 2284 3584 
Q 2666 3584 2933 3390 
Q 3200 3197 3328 2828 
z
" transform="scale(0.015625)"/>
      <path id="DejaVuSans-66" d="M 2375 4863 
L 2375 4384 
L 1825 4384 
Q 1516 4384 1395 4259 
Q 1275 4134 1275 3809 
L 1275 3500 
L 2222 3500 
L 2222 3053 
L 1275 3053 
L 1275 0 
L 697 0 
L 697 3053 
L 147 3053 
L 147 3500 
L 697 3500 
L 697 3744 
Q 697 4328 969 4595 
Q 1241 4863 1831 4863 
L 2375 4863 
z
" transform="scale(0.015625)"/>
     </defs>
     <use xlink:href="#DejaVuSans-43"/>
     <use xlink:href="#DejaVuSans-6f" x="69.824219"/>
     <use xlink:href="#DejaVuSans-6d" x="131.005859"/>
     <use xlink:href="#DejaVuSans-70" x="228.417969"/>
     <use xlink:href="#DejaVuSans-61" x="291.894531"/>
     <use xlink:href="#DejaVuSans-72" x="353.173828"/>
     <use xlink:href="#DejaVuSans-69" x="394.287109"/>
     <use xlink:href="#DejaVuSans-73" x="422.070312"/>
     <use xlink:href="#DejaVuSans-6f" x="474.169922"/>
     <use xlink:href="#DejaVuSans-6e" x="535.351562"/>
     <use xlink:href="#DejaVuSans-20" x="598.730469"/>
     <use xlink:href="#DejaVuSans-6f" x="630.517578"/>
     <use xlink:href="#DejaVuSans-66" x="691.699219"/>
     <use xlink:href="#DejaVuSans-20" x="726.904297"/>
     <use xlink:href="#DejaVuSans-70" x="758.691406"/>
     <use xlink:href="#DejaVuSans-65" x="822.167969"/>
     <use xlink:href="#DejaVuSans-72" x="883.691406"/>
     <use xlink:href="#DejaVuSans-66" x="924.804688"/>
     <use xlink:href="#DejaVuSans-6f" x="960.009766"/>
     <use xlink:href="#DejaVuSans-72" x="1021.191406"/>
     <use xlink:href="#DejaVuSans-6d" x="1060.554688"/>
     <use xlink:href="#DejaVuSans-61" x="1157.966797"/>
     <use xlink:href="#DejaVuSans-6e" x="1219.246094"/>
     <use xlink:href="#DejaVuSans-63" x="1282.625"/>
     <use xlink:href="#DejaVuSans-65" x="1337.605469"/>
     <use xlink:href="#DejaVuSans-20" x="1399.128906"/>
     <use xlink:href="#DejaVuSans-62" x="1430.916016"/>
     <use xlink:href="#DejaVuSans-6f" x="1494.392578"/>
     <use xlink:href="#DejaVuSans-75" x="1555.574219"/>
     <use xlink:href="#DejaVuSans-6e" x="1618.953125"/>
     <use xlink:href="#DejaVuSans-64" x="1682.332031"/>
     <use xlink:href="#DejaVuSans-73" x="1745.808594"/>
     <use xlink:href="#DejaVuSans-20" x="1797.908203"/>
     <use xlink:href="#DejaVuSans-61" x="1829.695312"/>
     <use xlink:href="#DejaVuSans-6e" x="1890.974609"/>
     <use xlink:href="#DejaVuSans-64" x="1954.353516"/>
     <use xlink:href="#DejaVuSans-20" x="2017.830078"/>
     <use xlink:href="#DejaVuSans-4d" x="2049.617188"/>
     <use xlink:href="#DejaVuSans-4c" x="2135.896484"/>
     <use xlink:href="#DejaVuSans-20" x="2191.609375"/>
     <use xlink:href="#DejaVuSans-70" x="2223.396484"/>
     <use xlink:href="#DejaVuSans-65" x="2286.873047"/>
     <use xlink:href="#DejaVuSans-72" x="2348.396484"/>
     <use xlink:href="#DejaVuSans-66" x="2389.509766"/>
     <use xlink:href="#DejaVuSans-6f" x="2424.714844"/>
     <use xlink:href="#DejaVuSans-72" x="2485.896484"/>
     <use xlink:href="#DejaVuSans-6d" x="2525.259766"/>
     <use xlink:href="#DejaVuSans-61" x="2622.671875"/>
     <use xlink:href="#DejaVuSans-6e" x="2683.951172"/>
     <use xlink:href="#DejaVuSans-63" x="2747.330078"/>
     <use xlink:href="#DejaVuSans-65" x="2802.310547"/>
    </g>
   </g>
   <g id="legend_1">
    <g id="patch_11">
     <path d="M 361.549375 289.712 
L 521.19 289.712 
Q 523.19 289.712 523.19 287.712 
L 523.19 229.9995 
Q 523.19 227.9995 521.19 227.9995 
L 361.549375 227.9995 
Q 359.549375 227.9995 359.549375 229.9995 
L 359.549375 287.712 
Q 359.549375 289.712 361.549375 289.712 
z
" style="fill: #ffffff; opacity: 0.8; stroke: #cccccc; stroke-linejoin: miter"/>
    </g>
    <g id="line2d_44">
     <defs>
      <path id="mb73b28e89a" d="M 0 1.691974 
C 0.448717 1.691974 0.879116 1.513697 1.196406 1.196406 
C 1.513697 0.879116 1.691974 0.448717 1.691974 0 
C 1.691974 -0.448717 1.513697 -0.879116 1.196406 -1.196406 
C 0.879116 -1.513697 0.448717 -1.691974 0 -1.691974 
C -0.448717 -1.691974 -0.879116 -1.513697 -1.196406 -1.196406 
C -1.513697 -0.879116 -1.691974 -0.448717 -1.691974 0 
C -1.691974 0.448717 -1.513697 0.879116 -1.196406 1.196406 
C -0.879116 1.513697 -0.448717 1.691974 0 1.691974 
z
" style="stroke: #000000; stroke-width: 2.025"/>
     </defs>
     <g>
      <use xlink:href="#mb73b28e89a" x="373.549375" y="236.097938" style="stroke: #000000; stroke-width: 2.025"/>
     </g>
    </g>
    <g id="text_28">
     <!-- Mean of realistic bound -->
     <g transform="translate(391.549375 239.597938) scale(0.1 -0.1)">
      <use xlink:href="#DejaVuSans-4d"/>
      <use xlink:href="#DejaVuSans-65" x="86.279297"/>
      <use xlink:href="#DejaVuSans-61" x="147.802734"/>
      <use xlink:href="#DejaVuSans-6e" x="209.082031"/>
      <use xlink:href="#DejaVuSans-20" x="272.460938"/>
      <use xlink:href="#DejaVuSans-6f" x="304.248047"/>
      <use xlink:href="#DejaVuSans-66" x="365.429688"/>
      <use xlink:href="#DejaVuSans-20" x="400.634766"/>
      <use xlink:href="#DejaVuSans-72" x="432.421875"/>
      <use xlink:href="#DejaVuSans-65" x="471.285156"/>
      <use xlink:href="#DejaVuSans-61" x="532.808594"/>
      <use xlink:href="#DejaVuSans-6c" x="594.087891"/>
      <use xlink:href="#DejaVuSans-69" x="621.871094"/>
      <use xlink:href="#DejaVuSans-73" x="649.654297"/>
      <use xlink:href="#DejaVuSans-74" x="701.753906"/>
      <use xlink:href="#DejaVuSans-69" x="740.962891"/>
      <use xlink:href="#DejaVuSans-63" x="768.746094"/>
      <use xlink:href="#DejaVuSans-20" x="823.726562"/>
      <use xlink:href="#DejaVuSans-62" x="855.513672"/>
      <use xlink:href="#DejaVuSans-6f" x="918.990234"/>
      <use xlink:href="#DejaVuSans-75" x="980.171875"/>
      <use xlink:href="#DejaVuSans-6e" x="1043.550781"/>
      <use xlink:href="#DejaVuSans-64" x="1106.929688"/>
     </g>
    </g>
    <g id="line2d_45">
     <path d="M 363.549375 250.776063 
L 373.549375 250.776063 
L 383.549375 250.776063 
" style="fill: none; stroke: #000000; stroke-width: 2.7; stroke-linecap: square"/>
    </g>
    <g id="text_29">
     <!-- SD of realistic bound -->
     <g transform="translate(391.549375 254.276063) scale(0.1 -0.1)">
      <use xlink:href="#DejaVuSans-53"/>
      <use xlink:href="#DejaVuSans-44" x="63.476562"/>
      <use xlink:href="#DejaVuSans-20" x="140.478516"/>
      <use xlink:href="#DejaVuSans-6f" x="172.265625"/>
      <use xlink:href="#DejaVuSans-66" x="233.447266"/>
      <use xlink:href="#DejaVuSans-20" x="268.652344"/>
      <use xlink:href="#DejaVuSans-72" x="300.439453"/>
      <use xlink:href="#DejaVuSans-65" x="339.302734"/>
      <use xlink:href="#DejaVuSans-61" x="400.826172"/>
      <use xlink:href="#DejaVuSans-6c" x="462.105469"/>
      <use xlink:href="#DejaVuSans-69" x="489.888672"/>
      <use xlink:href="#DejaVuSans-73" x="517.671875"/>
      <use xlink:href="#DejaVuSans-74" x="569.771484"/>
      <use xlink:href="#DejaVuSans-69" x="608.980469"/>
      <use xlink:href="#DejaVuSans-63" x="636.763672"/>
      <use xlink:href="#DejaVuSans-20" x="691.744141"/>
      <use xlink:href="#DejaVuSans-62" x="723.53125"/>
      <use xlink:href="#DejaVuSans-6f" x="787.007812"/>
      <use xlink:href="#DejaVuSans-75" x="848.189453"/>
      <use xlink:href="#DejaVuSans-6e" x="911.568359"/>
      <use xlink:href="#DejaVuSans-64" x="974.947266"/>
     </g>
    </g>
    <g id="PathCollection_12">
     <defs>
      <path id="m432e0bd6a3" d="M 0 -4 
L -4 4 
L 4 4 
z
"/>
     </defs>
     <g>
      <use xlink:href="#m432e0bd6a3" x="373.549375" y="266.329187"/>
     </g>
    </g>
    <g id="text_30">
     <!-- reported ML performance -->
     <g transform="translate(391.549375 268.954187) scale(0.1 -0.1)">
      <use xlink:href="#DejaVuSans-72"/>
      <use xlink:href="#DejaVuSans-65" x="38.863281"/>
      <use xlink:href="#DejaVuSans-70" x="100.386719"/>
      <use xlink:href="#DejaVuSans-6f" x="163.863281"/>
      <use xlink:href="#DejaVuSans-72" x="225.044922"/>
      <use xlink:href="#DejaVuSans-74" x="266.158203"/>
      <use xlink:href="#DejaVuSans-65" x="305.367188"/>
      <use xlink:href="#DejaVuSans-64" x="366.890625"/>
      <use xlink:href="#DejaVuSans-20" x="430.367188"/>
      <use xlink:href="#DejaVuSans-4d" x="462.154297"/>
      <use xlink:href="#DejaVuSans-4c" x="548.433594"/>
      <use xlink:href="#DejaVuSans-20" x="604.146484"/>
      <use xlink:href="#DejaVuSans-70" x="635.933594"/>
      <use xlink:href="#DejaVuSans-65" x="699.410156"/>
      <use xlink:href="#DejaVuSans-72" x="760.933594"/>
      <use xlink:href="#DejaVuSans-66" x="802.046875"/>
      <use xlink:href="#DejaVuSans-6f" x="837.251953"/>
      <use xlink:href="#DejaVuSans-72" x="898.433594"/>
      <use xlink:href="#DejaVuSans-6d" x="937.796875"/>
      <use xlink:href="#DejaVuSans-61" x="1035.208984"/>
      <use xlink:href="#DejaVuSans-6e" x="1096.488281"/>
      <use xlink:href="#DejaVuSans-63" x="1159.867188"/>
      <use xlink:href="#DejaVuSans-65" x="1214.847656"/>
     </g>
    </g>
    <g id="PathCollection_13">
     <path d="M 384.729715 281.007313 
L 362.369035 281.007313 
" style="stroke-dasharray: 6.618761,2.862167; stroke-dashoffset: 0; stroke: #000000; stroke-width: 1.788854"/>
    </g>
    <g id="text_31">
     <!-- Mean of max. bound -->
     <g transform="translate(391.549375 283.632313) scale(0.1 -0.1)">
      <use xlink:href="#DejaVuSans-4d"/>
      <use xlink:href="#DejaVuSans-65" x="86.279297"/>
      <use xlink:href="#DejaVuSans-61" x="147.802734"/>
      <use xlink:href="#DejaVuSans-6e" x="209.082031"/>
      <use xlink:href="#DejaVuSans-20" x="272.460938"/>
      <use xlink:href="#DejaVuSans-6f" x="304.248047"/>
      <use xlink:href="#DejaVuSans-66" x="365.429688"/>
      <use xlink:href="#DejaVuSans-20" x="400.634766"/>
      <use xlink:href="#DejaVuSans-6d" x="432.421875"/>
      <use xlink:href="#DejaVuSans-61" x="529.833984"/>
      <use xlink:href="#DejaVuSans-78" x="591.113281"/>
      <use xlink:href="#DejaVuSans-2e" x="650.292969"/>
      <use xlink:href="#DejaVuSans-20" x="682.080078"/>
      <use xlink:href="#DejaVuSans-62" x="713.867188"/>
      <use xlink:href="#DejaVuSans-6f" x="777.34375"/>
      <use xlink:href="#DejaVuSans-75" x="838.525391"/>
      <use xlink:href="#DejaVuSans-6e" x="901.904297"/>
      <use xlink:href="#DejaVuSans-64" x="965.283203"/>
     </g>
    </g>
   </g>
  </g>
 </g>
 <defs>
  <clipPath id="p96ff1013e3">
   <rect x="51.842" y="25.44" width="476.348" height="269.272"/>
  </clipPath>
 </defs>
</svg>
